:SAMPLES-PER-SECOND 30
:FRAME-RANGE 1-744
:FULLY-SPECIFIED
:DEGREES
47
root  -52.0788 39.3078 -108.757 167.2 46.1679 172.495
RightUpLeg  3.43615 13.4782 -3.98296
RightLeg  55.6622 -3.88805 -6.51977
RightFoot  1.3475 -1.12756 10.199
RightToes  5.82063e-011 0 -3.6325e-017
Spine  13.8042 4.40821 4.75975
Spine1  -0.356914 6.01688 -8.70476
HEad  14.6151 -2.70752 -12.2506
LeftShoulder1  2.80625 -3.25152 -35.4905
LeftArm  5.17942 20.7336 -22.6048
LeftForeArm  4.74595 0.28427 -17.9184
LeftHand  -1.0477 -4.42433 12.642
RightShoulder  8.0441 6.71571 67.0791
RightArm  16.6096 5.40374 -5.71669
RightForeArm  11.6625 7.08317 13.9828
RightHand  0.641133 20.337 2.36955
LeftUpLeg  -1.15724 0.48866 -6.35051
LeftLeg  9.4422 1.06907 1.27112
LeftFoot  -3.0117 -0.366505 5.27929
LeftToes  1.25507e-010 -3.78807e-010 5.71421e-011
48
root  -51.4738 39.4527 -109.724 167.47 45.647 173.456
RightUpLeg  -0.114323 12.8766 -3.16184
RightLeg  56.0588 -3.48622 -5.98487
RightFoot  -0.687905 -0.901918 9.60132
RightToes  5.82063e-011 0 -3.6325e-017
Spine  14.2011 4.13505 4.82459
Spine1  -0.881736 5.65717 -8.00284
HEad  15.2116 -2.39959 -11.9669
LeftShoulder1  2.82715 -3.31478 -35.414
LeftArm  5.03112 18.0984 -23.7389
LeftForeArm  5.05504 0.221947 -17.8984
LeftHand  -1.04017 -4.49883 12.4637
RightShoulder  7.79889 6.37203 67.2609
RightArm  17.4229 5.15912 -5.71497
RightForeArm  9.93784 7.87425 13.7714
RightHand  0.697121 20.4986 2.59914
LeftUpLeg  1.72033 0.998212 -6.25074
LeftLeg  8.31955 0.278003 1.32913
LeftFoot  -4.15343 -0.33606 5.74488
LeftToes  1.25507e-010 -3.78807e-010 5.71421e-011
49
root  -50.8761 39.5315 -110.64 167.795 45.3452 174.406
RightUpLeg  -3.49219 12.3544 -2.43352
RightLeg  54.1287 -3.7026 -5.88291
RightFoot  -3.46422 -0.67126 9.38566
RightToes  5.82063e-011 0 -3.6325e-017
Spine  14.5671 3.87221 4.927
Spine1  -1.25845 5.35191 -7.40344
HEad  15.3143 -2.14071 -11.5821
LeftShoulder1  2.86403 -3.45196 -35.1337
LeftArm  3.78561 15.4642 -25.1958
LeftForeArm  6.00579 0.139743 -17.7171
LeftHand  -1.09676 -4.43214 13.2061
RightShoulder  7.60139 6.11821 67.2826
RightArm  18.1093 4.70358 -5.64804
RightForeArm  9.55585 8.37689 13.5683
RightHand  0.759022 20.4196 2.88485
LeftUpLeg  4.15297 1.70955 -5.85476
LeftLeg  7.7993 -0.527154 1.22166
LeftFoot  -5.54079 -0.281795 6.21578
LeftToes  1.25507e-010 -3.78807e-010 5.71421e-011
50
root  -50.3041 39.608 -111.534 168.349 45.1679 175.677
RightUpLeg  -6.27321 11.8753 -1.75072
RightLeg  49.5873 -4.45983 -5.93784
RightFoot  -6.14765 -0.440727 8.77623
RightToes  5.82063e-011 0 -3.6325e-017
Spine  14.9027 3.43421 5.6696
Spine1  -1.44872 5.07562 -7.07948
HEad  14.9467 -1.90531 -11.2087
LeftShoulder1  2.92719 -3.65731 -34.8424
LeftArm  4.61833 12.4716 -26.6543
LeftForeArm  5.22871 -0.481777 -17.7243
LeftHand  -1.09254 -4.41548 13.1781
RightShoulder  7.47166 5.96109 67.2408
RightArm  18.4565 4.373 -5.54079
RightForeArm  10.2207 8.25991 13.5985
RightHand  0.773184 20.3447 2.95848
LeftUpLeg  6.59948 2.42309 -5.10292
LeftLeg  7.15805 -1.32043 1.10189
LeftFoot  -6.85826 -0.218385 6.62822
LeftToes  1.25507e-010 -3.78807e-010 5.71421e-011
51
root  -49.7545 39.6599 -112.39 168.926 45.1277 176.982
RightUpLeg  -8.27531 11.907 -1.02662
RightLeg  42.523 -6.56626 -6.69574
RightFoot  -6.78707 -0.367737 8.07145
RightToes  5.82063e-011 0 -3.6325e-017
Spine  15.5658 3.0494 6.51532
Spine1  -1.82722 4.84796 -6.5411
HEad  14.4882 -1.52494 -11.2452
LeftShoulder1  3.00381 -3.80655 -35.0535
LeftArm  5.72025 9.21214 -27.846
LeftForeArm  5.68435 -1.20109 -17.6628
LeftHand  -1.17244 -4.94134 13.4258
RightShoulder  7.23203 5.71363 66.8996
RightArm  18.1986 3.99753 -5.42794
RightForeArm  11.5267 7.82763 13.6873
RightHand  0.798011 20.2441 3.0841
LeftUpLeg  8.93168 2.87549 -4.38327
LeftLeg  6.59526 -1.76815 1.24357
LeftFoot  -8.14303 -0.141997 6.836
LeftToes  1.25507e-010 -3.78807e-010 5.71421e-011
52
root  -49.192 39.6745 -113.212 169.533 45.1594 177.989
RightUpLeg  -9.29002 12.515 -0.764153
RightLeg  32.6051 -9.48208 -6.71321
RightFoot  -5.24163 -0.481706 8.35524
RightToes  5.82063e-011 0 -3.6325e-017
Spine  15.9843 2.79015 7.16311
Spine1  -2.08019 4.70185 -5.99906
HEad  14.3184 -1.38847 -11.3632
LeftShoulder1  3.06303 -3.91319 -35.2581
LeftArm  6.7778 5.96729 -29.1096
LeftForeArm  6.21111 -2.00155 -17.5407
LeftHand  -1.25282 -5.15863 14.0353
RightShoulder  6.94549 5.36896 66.7711
RightArm  17.6777 3.88867 -5.68912
RightForeArm  12.5151 6.99947 13.9922
RightHand  0.83541 20.2287 3.25414
LeftUpLeg  10.9937 3.21978 -3.84132
LeftLeg  5.97756 -1.96371 1.40475
LeftFoot  -9.26601 -0.0730528 7.10645
LeftToes  1.25507e-010 -3.78807e-010 5.71421e-011
53
root  -48.602 39.6471 -114.023 170.201 45.0194 178.571
RightUpLeg  -9.26731 14.5319 -1.19226
RightLeg  19.7545 -12.2172 -5.02313
RightFoot  -2.56088 -0.690446 8.74861
RightToes  5.82063e-011 0 -3.6325e-017
Spine  15.8258 2.53398 7.53722
Spine1  -2.02629 4.51555 -5.65572
HEad  14.4147 -1.23247 -11.5063
LeftShoulder1  3.09233 -4.01844 -35.0743
LeftArm  7.31797 2.88998 -30.5177
LeftForeArm  6.33049 -2.61649 -17.4133
LeftHand  -1.25078 -5.26842 13.8753
RightShoulder  6.72418 5.11447 66.589
RightArm  16.2069 3.55258 -5.76382
RightForeArm  14.1253 5.77403 14.2883
RightHand  0.778925 20.1589 3.0108
LeftUpLeg  12.7602 3.45289 -3.5579
LeftLeg  5.18736 -2.22712 1.49479
LeftFoot  -10.366 0.000520308 7.26533
LeftToes  1.25507e-010 -3.78807e-010 5.71421e-011
54
root  -47.9341 39.5447 -114.869 170.654 44.5998 178.833
RightUpLeg  -7.5258 5.69656 0.397487
RightLeg  4.78234 -1.26554 -5.44443
RightFoot  0.311566 -1.1692 11.4433
RightToes  5.82063e-011 0 -3.6325e-017
Spine  15.2031 2.27295 7.70098
Spine1  -1.61529 4.28316 -5.50465
HEad  14.6649 -1.09053 -11.6573
LeftShoulder1  3.13518 -4.17702 -34.7899
LeftArm  7.92888 0.276401 -31.899
LeftForeArm  5.70462 -3.45288 -17.2293
LeftHand  -1.21665 -4.92769 13.9338
RightShoulder  6.40679 4.71561 66.5373
RightArm  14.9028 3.26741 -5.99993
RightForeArm  15.1494 4.50362 14.5895
RightHand  0.80468 19.9609 3.15645
LeftUpLeg  14.4917 3.59563 -3.5256
LeftLeg  4.73387 -2.67782 1.69073
LeftFoot  -11.8097 0.100725 7.23371
LeftToes  1.25507e-010 -3.78807e-010 5.71421e-011
55
root  -47.1671 39.3596 -115.773 170.673 43.5202 178.861
RightUpLeg  -6.3352 2.42631 -0.15565
RightLeg  -5.59772 4.2248 -5.02119
RightFoot  1.38284 -1.27804 11.5116
RightToes  5.82063e-011 0 -3.6325e-017
Spine  14.0673 1.9175 7.4261
Spine1  -0.83727 3.82476 -5.03906
HEad  15.2251 -1.09972 -12.0683
LeftShoulder1  3.20096 -4.35804 -34.69
LeftArm  8.97442 -2.06858 -33.1243
LeftForeArm  4.71566 -4.19577 -17.1141
LeftHand  -1.11125 -4.24924 13.6176
RightShoulder  5.95562 4.16867 66.3099
RightArm  14.3551 2.8508 -6.1961
RightForeArm  15.3254 3.48587 14.8708
RightHand  0.654404 19.4681 2.53735
LeftUpLeg  16.3437 3.80217 -3.54122
LeftLeg  4.99975 -3.54018 1.87211
LeftFoot  -13.6733 0.231459 7.31719
LeftToes  1.25507e-010 -3.78807e-010 5.71421e-011
56
root  -46.3652 39.1632 -116.699 170.573 41.8013 178.743
RightUpLeg  -6.43412 1.07404 -1.00684
RightLeg  -9.05363 6.10898 -4.68537
RightFoot  -1.53004 -0.933474 10.7243
RightToes  5.82063e-011 0 -3.6325e-017
Spine  12.8513 1.43473 7.17011
Spine1  -0.0815732 3.16761 -4.44126
HEad  16.3118 -1.26391 -12.3121
LeftShoulder1  3.25139 -4.5254 -34.474
LeftArm  11.1723 -4.28405 -34.374
LeftForeArm  4.08846 -4.6062 -17.1835
LeftHand  -1.13658 -4.32601 13.8139
RightShoulder  5.27808 3.33792 65.9776
RightArm  13.3076 2.38708 -6.26303
RightForeArm  16.6819 2.29837 15.035
RightHand  0.731768 19.8107 2.8467
LeftUpLeg  18.0738 3.96166 -3.45391
LeftLeg  5.62284 -4.85976 1.90827
LeftFoot  -15.402 0.356697 7.43551
LeftToes  1.25507e-010 -3.78807e-010 5.71421e-011
57
root  -45.5624 39.0045 -117.605 170.318 40.4146 178.755
RightUpLeg  -6.18282 0.608578 -1.49133
RightLeg  -8.11099 4.4625 -4.30277
RightFoot  -2.94418 -0.812279 10.7607
RightToes  5.82063e-011 0 -3.6325e-017
Spine  12.3836 1.06424 7.56043
Spine1  0.265505 2.70018 -3.98938
HEad  17.2032 -1.40929 -12.6922
LeftShoulder1  3.28992 -4.61485 -34.5027
LeftArm  12.7413 -6.00452 -35.3913
LeftForeArm  4.4809 -4.82701 -17.2154
LeftHand  -1.16851 -4.40754 14.0777
RightShoulder  4.54451 2.39997 65.8772
RightArm  13.4538 1.95351 -6.7111
RightForeArm  16.2807 1.71071 15.254
RightHand  0.679599 19.4678 2.65399
LeftUpLeg  19.9456 4.14877 -3.09554
LeftLeg  6.42995 -6.06166 1.92902
LeftFoot  -16.8339 0.41828 6.60089
LeftToes  1.25507e-010 -3.78807e-010 5.71421e-011
58
root  -44.7425 38.9395 -118.515 170.05 39.7553 178.91
RightUpLeg  -5.72236 0.228022 -1.59894
RightLeg  -5.26398 2.73126 -3.96371
RightFoot  1.10145 -1.21259 11.1598
RightToes  5.82063e-011 0 -3.6325e-017
Spine  11.7069 0.764519 8.77245
Spine1  1.26869 2.46118 -3.79117
HEad  17.621 -1.15896 -12.7961
LeftShoulder1  3.30668 -4.66415 -34.4642
LeftArm  14.4758 -6.93573 -35.9318
LeftForeArm  3.94903 -5.29607 -17.1921
LeftHand  -1.17309 -4.29519 14.2879
RightShoulder  4.08855 1.7942 66.0395
RightArm  13.4668 1.65025 -7.06712
RightForeArm  16.6626 0.788339 15.5071
RightHand  0.800913 19.6758 3.18286
LeftUpLeg  22.3608 3.76873 -2.90457
LeftLeg  6.32252 -6.40458 2.26428
LeftFoot  -17.2747 0.35423 4.82862
LeftToes  1.25507e-010 -3.78807e-010 5.71421e-011
59
root  -43.919 38.8893 -119.439 169.879 39.4942 179.279
RightUpLeg  -5.85334 1.78035 -0.542082
RightLeg  -1.39647 1.97464 -5.46164
RightFoot  5.66523 -1.8243 12.4189
RightToes  5.82063e-011 0 -3.6325e-017
Spine  11.3251 0.311734 10.3725
Spine1  1.86309 2.24611 -3.75759
HEad  18.0819 -0.235905 -13.0797
LeftShoulder1  3.2894 -4.52882 -34.9228
LeftArm  16.5852 -6.85067 -35.6747
LeftForeArm  2.79578 -6.24822 -17.0047
LeftHand  -1.22454 -4.50105 14.5991
RightShoulder  3.75467 1.36859 65.9793
RightArm  13.0044 1.22239 -7.23984
RightForeArm  17.1248 -0.0743504 15.6128
RightHand  0.681132 19.2628 2.68881
LeftUpLeg  23.6404 1.63675 -3.45054
LeftLeg  8.66271 -4.49689 2.2737
LeftFoot  -17.6017 0.232322 2.31553
LeftToes  1.25507e-010 -3.78807e-010 5.71421e-011
60
root  -43.0676 38.8532 -120.327 169.841 40.0268 179.974
RightUpLeg  -6.62394 2.45806 0.417245
RightLeg  4.56791 2.21556 -5.33133
RightFoot  4.94823 -1.75276 12.4405
RightToes  5.82063e-011 0 -3.6325e-017
Spine  11.6481 0.0472457 11.4645
Spine1  1.62138 2.1068 -3.43011
HEad  18.4066 1.09434 -13.3354
LeftShoulder1  3.2675 -4.34041 -35.6117
LeftArm  15.3218 -5.58825 -35.3376
LeftForeArm  4.13082 -6.36825 -16.7834
LeftHand  -1.30632 -4.05149 16.2535
RightShoulder  3.67143 1.28166 65.7387
RightArm  12.3061 1.23831 -7.36336
RightForeArm  17.8331 -1.2076 15.7527
RightHand  0.819683 19.6845 3.26758
LeftUpLeg  23.4557 -2.50194 -4.54447
LeftLeg  13.8473 0.983292 1.69106
LeftFoot  -17.2557 0.0674367 -0.697944
LeftToes  1.25507e-010 -3.78807e-010 5.71421e-011
